<?xml version="1.0" standalone="no"?>
<!DOCTYPE svg PUBLIC "-//W3C//DTD SVG 20010904//EN"
 "http://www.w3.org/TR/2001/REC-SVG-20010904/DTD/svg10.dtd">
<svg version="1.0" xmlns="http://www.w3.org/2000/svg"
 width="1127.000000pt" height="1459.000000pt" viewBox="0 0 1127.000000 1459.000000"
 preserveAspectRatio="xMidYMid meet">
<metadata>
Created by potrace 1.16, written by Peter Selinger 2001-2019
</metadata>
<g transform="translate(0.000000,1459.000000) scale(0.100000,-0.100000)"
fill="#000000" stroke="none">
<path d="M0 7295 l0 -7295 5635 0 5635 0 0 7295 0 7295 -5635 0 -5635 0 0
-7295z m5400 3544 c97 -27 162 -62 225 -124 63 -61 110 -155 126 -251 l11 -70
73 -27 c193 -72 308 -201 351 -394 32 -146 8 -379 -55 -527 -22 -51 -97 -152
-146 -198 -108 -99 -302 -144 -495 -114 -52 8 -96 14 -97 12 -4 -4 -41 -321
-62 -531 -43 -421 -75 -872 -102 -1435 -17 -363 -23 -1554 -10 -2060 22 -867
54 -1536 112 -2335 11 -154 22 -314 24 -355 2 -41 9 -149 16 -240 9 -128 9
-197 1 -300 -7 -74 -12 -162 -12 -194 0 -36 -4 -56 -9 -50 -5 5 -17 126 -27
269 -18 268 -16 302 21 420 3 11 -5 0 -18 -25 l-25 -45 -6 55 c-8 72 -31 444
-56 895 -97 1780 -104 3474 -20 4710 31 446 102 1146 126 1227 4 12 -13 25
-69 52 -126 61 -217 159 -264 286 -20 52 -21 53 -27 25 -3 -17 -33 -179 -66
-362 l-60 -331 29 -90 c68 -206 124 -486 158 -784 25 -217 25 -863 0 -1093
-36 -332 -88 -620 -177 -975 -27 -107 -60 -253 -74 -325 -120 -623 -125 -1444
-16 -2515 11 -107 50 -447 86 -756 l66 -561 -58 -79 c-33 -44 -66 -90 -74
-102 l-15 -23 -55 37 c-30 20 -57 38 -58 40 -2 1 -12 84 -22 183 -27 258 -62
503 -71 494 -7 -8 -52 -331 -68 -496 -5 -48 -10 -90 -12 -91 -2 -2 -36 9 -76
25 -40 15 -114 41 -165 56 -89 26 -97 30 -173 102 -44 42 -100 92 -125 111
l-45 35 61 -80 c102 -135 188 -288 258 -457 42 -104 89 -239 83 -244 -2 -2
-30 1 -63 8 -36 7 -109 38 -189 79 -71 37 -168 84 -215 104 -46 20 -86 38 -87
39 -4 4 99 866 178 1486 240 1896 492 3640 749 5175 122 732 266 1540 280
1570 5 11 9 47 8 80 l-1 61 -50 29 c-96 58 -174 175 -197 294 -23 122 0 315
52 431 54 119 156 212 275 250 84 27 244 27 343 -1z m-1017 -9182 c122 -81
112 -58 100 -240 l-6 -97 -18 39 c-33 74 -102 185 -173 280 -39 52 -78 103
-86 114 -13 18 -11 18 30 -3 25 -12 93 -54 153 -93z m576 -240 c1 -25 -1 -27
-20 -17 -30 17 -33 36 -13 88 l18 47 7 -45 c4 -25 8 -58 8 -73z m-1119 -62
l74 -55 -55 -1 -54 0 85 -24 c82 -22 87 -25 149 -91 35 -38 88 -100 117 -139
56 -76 130 -203 121 -211 -3 -3 -39 -8 -81 -11 -41 -3 -73 -9 -71 -14 3 -4 47
-17 99 -29 l93 -21 20 -67 c24 -79 23 -81 -71 -62 -34 7 -73 14 -87 16 -77 10
-296 115 -414 199 l-68 49 7 65 c16 179 50 451 56 451 4 0 40 -25 80 -55z
m856 -1 l-15 -29 -1 45 c0 41 1 43 16 28 14 -14 14 -18 0 -44z m153 -185 c-18
-15 -35 -26 -36 -25 -2 1 4 26 13 55 l15 52 21 -27 22 -27 -35 -28z"/>
</g>
</svg>
