<?xml version="1.0" standalone="no"?>
<!DOCTYPE svg PUBLIC "-//W3C//DTD SVG 20010904//EN"
 "http://www.w3.org/TR/2001/REC-SVG-20010904/DTD/svg10.dtd">
<svg version="1.0" xmlns="http://www.w3.org/2000/svg"
 width="1127.000000pt" height="1459.000000pt" viewBox="0 0 1127.000000 1459.000000"
 preserveAspectRatio="xMidYMid meet">
<metadata>
Created by potrace 1.16, written by Peter Selinger 2001-2019
</metadata>
<g transform="translate(0.000000,1459.000000) scale(0.100000,-0.100000)"
fill="#000000" stroke="none">
<path d="M7940 14139 c-800 -82 -1499 -468 -1948 -1077 -96 -130 -169 -252
-273 -458 -154 -305 -266 -606 -348 -935 l-37 -151 -45 103 c-94 220 -284 532
-464 764 -394 508 -882 793 -1525 892 -163 25 -568 25 -730 0 -536 -83 -974
-280 -1289 -582 -108 -104 -147 -153 -133 -167 8 -8 30 4 79 44 196 159 390
282 538 342 34 14 37 14 20 1 -161 -123 -255 -216 -295 -291 -29 -52 5 -44 85
22 144 118 349 244 396 244 6 0 -17 -21 -52 -47 -108 -79 -200 -184 -235 -269
-11 -26 -12 -40 -5 -47 8 -8 28 5 69 44 65 64 173 153 203 170 12 6 2 -12 -25
-46 -51 -62 -90 -133 -101 -182 -9 -44 5 -41 45 9 59 73 292 308 354 357 111
87 124 88 44 4 -89 -94 -160 -187 -194 -254 -23 -47 -50 -136 -42 -144 2 -2
73 65 158 148 142 140 227 213 305 263 27 17 25 13 -15 -35 -138 -163 -210
-292 -230 -410 -7 -40 -10 -74 -7 -77 2 -2 29 29 59 69 100 132 256 290 363
368 47 35 164 99 179 99 4 0 -23 -26 -61 -59 -118 -102 -214 -223 -277 -349
-35 -70 -70 -189 -64 -219 2 -8 45 39 98 108 149 192 353 390 490 474 37 23
24 5 -76 -96 -127 -130 -186 -204 -247 -305 -64 -107 -109 -251 -81 -261 6 -2
51 47 101 109 190 240 364 412 508 504 58 37 57 34 -56 -77 -168 -165 -283
-327 -348 -491 -35 -88 -47 -143 -33 -152 6 -3 39 33 74 81 181 247 390 453
552 544 l41 23 -55 -63 c-152 -174 -253 -326 -327 -493 -45 -103 -86 -235 -77
-249 11 -18 22 -7 69 68 169 266 382 488 585 608 8 5 -29 -41 -82 -102 -221
-254 -339 -453 -371 -625 -9 -49 -8 -61 3 -68 10 -6 28 12 68 73 157 238 354
430 513 501 100 45 105 41 30 -24 -186 -160 -353 -421 -385 -601 -11 -60 16
-57 65 8 69 91 248 272 334 336 72 54 184 115 241 132 13 3 -21 -36 -78 -92
-167 -165 -295 -344 -335 -472 -10 -29 -23 -55 -29 -58 -7 -2 -57 10 -111 27
-260 84 -467 119 -733 127 -569 16 -1104 -158 -1587 -515 -558 -415 -962
-1041 -1042 -1615 -24 -174 -2 -243 33 -104 56 216 135 437 214 592 61 122 75
134 47 42 -45 -148 -71 -377 -46 -415 11 -18 27 3 36 48 16 81 78 276 114 360
35 82 87 167 97 158 2 -2 -8 -38 -21 -80 -45 -143 -54 -314 -19 -408 7 -19 13
-27 13 -17 1 9 5 17 10 17 4 0 11 24 15 54 7 64 60 278 75 303 8 13 10 -11 11
-95 0 -116 13 -194 34 -211 10 -8 17 27 30 152 20 188 39 301 66 409 20 78 60
192 65 186 1 -2 -4 -41 -12 -88 -20 -114 -22 -359 -4 -430 13 -53 38 -106 47
-98 2 3 10 56 19 119 28 214 86 461 130 554 14 30 14 30 7 -15 -4 -25 -7 -124
-7 -220 1 -195 14 -271 63 -349 46 -75 52 -67 52 66 1 201 39 423 98 574 29
71 71 153 77 147 2 -2 -6 -43 -18 -93 -17 -74 -21 -123 -22 -280 0 -213 11
-276 68 -375 l32 -55 7 105 c18 265 31 384 53 496 22 115 74 289 96 323 11 18
11 11 -19 -144 -22 -117 -24 -501 -3 -585 17 -68 51 -150 62 -150 16 0 18 20
29 216 17 319 63 586 125 715 14 31 23 43 20 27 -65 -343 -69 -562 -14 -781
53 -211 74 -204 75 26 3 316 52 584 143 777 l21 45 -5 -45 c-29 -227 -23 -482
16 -674 23 -118 80 -288 94 -287 6 1 10 90 11 244 1 252 15 389 54 540 17 69
80 241 85 235 2 -2 -3 -55 -11 -118 -17 -139 -19 -457 -4 -560 14 -100 45
-210 75 -270 l25 -50 -52 -26 c-241 -122 -538 -370 -731 -609 -308 -382 -517
-865 -593 -1367 -35 -232 -35 -571 1 -778 39 -233 149 -550 190 -550 11 0 9
17 -10 88 -70 255 -116 578 -99 697 l7 50 17 -87 c23 -112 54 -205 97 -293 46
-93 60 -112 74 -98 8 8 3 43 -19 130 -47 182 -62 276 -62 395 0 114 12 137 24
46 9 -71 60 -220 96 -283 42 -73 96 -132 109 -120 8 8 1 39 -24 107 -35 98
-58 183 -70 253 -5 35 0 29 37 -45 40 -80 130 -190 155 -190 6 0 -20 71 -57
158 -79 182 -133 334 -161 447 -29 122 -22 141 15 40 39 -107 95 -219 147
-296 36 -53 132 -149 149 -149 5 0 -9 44 -31 98 -89 217 -177 518 -167 568 2
9 20 -24 41 -73 74 -176 202 -343 311 -407 47 -27 69 -29 48 -4 -20 25 -134
262 -167 347 -59 152 -104 377 -88 439 5 21 12 8 38 -74 55 -172 128 -311 223
-422 48 -57 184 -160 190 -143 2 5 -8 27 -21 49 -36 56 -108 202 -157 317 -76
180 -126 352 -144 500 -6 46 -4 43 22 -35 86 -256 201 -471 321 -602 59 -65
118 -105 132 -91 5 5 -14 51 -51 119 -149 272 -268 594 -285 774 l-6 65 39
-115 c106 -307 237 -525 402 -672 49 -44 67 -54 77 -46 11 9 11 15 0 32 -35
54 -122 215 -159 294 -94 203 -160 418 -172 562 l-7 75 29 -70 c103 -251 229
-451 386 -614 103 -107 165 -156 178 -143 8 8 -7 38 -51 107 -137 211 -253
465 -295 648 -22 91 -41 216 -32 206 2 -2 22 -49 45 -104 97 -229 235 -456
353 -581 86 -91 166 -148 184 -133 9 7 -1 31 -43 97 -117 186 -215 409 -247
565 -16 78 -22 267 -8 267 4 0 22 -46 40 -103 82 -257 236 -498 393 -613 74
-54 80 -36 25 73 -94 186 -157 363 -185 517 -13 70 -15 256 -3 256 5 0 16 -26
26 -57 58 -187 161 -395 258 -524 60 -79 179 -189 205 -189 17 0 17 -2 -11 61
-83 190 -156 491 -155 639 1 52 4 86 6 75 3 -11 24 -78 48 -150 72 -220 163
-375 264 -449 27 -20 51 -36 54 -36 2 0 -17 62 -43 138 -93 269 -132 536 -100
680 l13 57 19 -75 c51 -199 131 -384 217 -507 47 -66 68 -83 83 -68 3 3 -7 39
-23 79 -55 142 -100 325 -113 456 -5 51 -2 46 33 -60 46 -137 92 -232 155
-317 74 -100 87 -85 52 60 -50 208 -57 365 -21 467 29 81 36 79 61 -17 45
-176 112 -308 205 -405 60 -61 86 -74 75 -35 -47 153 -68 263 -73 377 -3 69
-3 123 0 120 3 -3 20 -46 38 -95 39 -112 86 -207 152 -308 75 -114 89 -98 43
52 -18 56 -26 106 -26 155 0 74 15 150 29 142 4 -3 13 -31 20 -63 27 -120 95
-257 155 -312 32 -30 38 -25 26 20 -34 124 -30 292 10 368 l18 36 7 -30 c30
-132 77 -245 119 -284 14 -14 28 -23 30 -20 2 2 0 40 -5 84 -9 79 0 177 19
211 7 13 10 8 14 -22 13 -92 94 -245 133 -253 16 -3 17 2 10 40 -5 24 -9 89
-9 145 l-1 101 -43 49 c-125 144 -171 362 -117 549 21 72 102 192 168 250 60
53 189 117 269 135 79 18 236 8 317 -20 190 -64 328 -222 369 -422 11 -49 21
-78 29 -78 8 0 43 -13 79 -30 202 -92 316 -274 316 -508 -1 -231 -7 -288 -40
-354 -17 -35 -52 -90 -77 -123 -68 -90 -61 -96 36 -34 35 23 112 89 170 148
85 86 105 101 103 81 -5 -42 -85 -188 -156 -281 -37 -49 -64 -89 -58 -89 22 0
118 42 160 70 59 39 177 157 226 225 53 74 64 76 64 14 0 -100 -65 -250 -175
-404 -64 -88 -62 -109 6 -75 90 46 189 139 304 285 9 11 4 -5 -11 -35 -35 -73
-120 -195 -212 -303 -53 -63 -72 -91 -64 -99 8 -8 27 -1 67 23 108 65 255 210
363 357 26 35 48 58 50 52 6 -18 -38 -151 -75 -225 -60 -119 -190 -301 -286
-402 -23 -24 -38 -45 -35 -49 12 -11 113 25 176 63 107 65 207 164 329 328
l23 30 -15 -43 c-42 -125 -179 -328 -325 -485 -40 -43 -70 -81 -66 -84 9 -10
121 24 184 56 135 69 316 225 451 390 43 52 51 58 45 35 -36 -150 -157 -328
-357 -526 -71 -70 -126 -132 -123 -137 9 -13 92 12 183 54 158 74 305 199 460
390 l32 40 -10 -40 c-49 -183 -283 -460 -526 -620 -109 -71 4 -67 164 5 125
57 286 178 461 346 56 55 102 97 102 94 0 -15 -98 -163 -147 -222 -82 -100
-260 -267 -384 -360 -97 -73 -129 -108 -99 -108 17 0 181 65 241 95 142 72
317 203 452 339 l79 79 -27 -54 c-87 -171 -257 -365 -485 -554 -52 -43 -97
-85 -99 -93 -5 -24 52 -8 165 47 167 82 336 220 472 385 88 108 88 108 62 56
-73 -146 -270 -369 -498 -564 -82 -70 -110 -106 -83 -106 5 0 37 9 72 20 129
40 312 176 460 342 119 135 124 139 83 68 -87 -151 -259 -346 -444 -503 -52
-45 -97 -82 -99 -84 -2 -2 -2 -5 1 -8 2 -3 40 4 83 15 87 22 180 70 264 135
62 48 194 182 230 233 13 18 26 31 28 28 10 -9 -63 -149 -116 -224 -63 -88
-217 -250 -312 -328 -38 -31 -68 -59 -66 -61 3 -2 36 3 74 11 121 25 235 94
373 223 81 75 83 77 60 35 -40 -72 -172 -240 -280 -357 -61 -67 -95 -111 -87
-113 22 -5 92 22 154 59 32 19 111 87 177 153 82 82 112 106 96 80 -56 -93
-145 -200 -290 -348 -129 -132 -150 -158 -125 -152 51 12 111 45 162 88 83 71
88 75 78 58 -25 -45 -90 -134 -145 -198 -76 -91 -76 -117 2 -75 66 35 172 139
224 219 70 109 64 103 58 69 -15 -77 -143 -306 -247 -438 -17 -21 -26 -44 -23
-53 14 -38 164 104 263 250 61 90 61 76 -1 -64 -54 -122 -133 -256 -235 -399
-58 -80 -79 -117 -71 -125 7 -7 33 12 86 64 252 249 449 643 534 1068 42 215
53 353 47 591 -6 217 -21 345 -64 524 l-25 108 59 54 c110 99 220 288 303 520
48 135 54 102 11 -66 -38 -150 -87 -281 -177 -468 -41 -85 -72 -156 -70 -159
9 -8 104 68 160 128 92 100 160 230 217 415 l28 90 0 -72 c2 -146 -58 -356
-163 -570 -36 -73 -60 -133 -55 -133 20 0 97 60 150 117 74 80 154 219 202
353 3 8 6 2 6 -15 1 -72 -71 -329 -145 -511 -19 -48 -32 -89 -30 -92 8 -7 67
45 104 92 48 59 99 153 148 275 49 120 57 104 19 -36 -28 -106 -75 -235 -146
-400 -27 -64 -47 -118 -45 -120 2 -3 25 14 50 37 31 29 61 73 91 132 25 50 45
88 45 85 0 -27 -35 -172 -60 -251 -24 -74 -29 -101 -20 -110 8 -8 19 -2 40 24
68 81 126 226 146 365 l8 50 8 -50 c13 -84 -32 -394 -73 -503 -12 -32 9 -50
29 -24 53 68 108 221 137 375 l13 72 1 -135 c0 -74 -6 -181 -14 -237 -12 -88
-61 -322 -81 -392 -6 -19 -4 -22 12 -19 38 7 125 264 161 474 22 136 25 520 5
659 -85 564 -323 1063 -689 1446 -297 309 -651 514 -1071 620 -176 44 -394 82
-568 100 l-121 12 -6 111 c-6 127 -37 258 -90 384 -20 45 -32 82 -29 82 4 0
30 -13 58 -30 109 -62 232 -243 319 -467 16 -40 34 -73 41 -73 45 0 18 250
-49 451 -39 117 -41 129 -20 103 58 -73 154 -292 207 -475 17 -60 29 -85 41
-88 17 -3 17 7 12 135 -4 100 -13 167 -31 239 -26 105 -88 290 -113 338 -8 16
-13 31 -11 33 10 9 86 -67 138 -137 96 -130 203 -358 265 -564 38 -129 35
-125 52 -80 25 64 29 247 8 362 -14 79 -60 235 -109 368 -13 35 64 -57 105
-126 75 -126 181 -402 229 -597 6 -23 15 -40 20 -37 5 3 19 36 31 73 31 96 38
327 14 476 -17 114 -69 313 -104 405 l-20 54 30 -29 c134 -127 256 -414 319
-751 26 -138 40 -158 64 -85 26 82 36 162 36 293 0 161 -26 319 -80 481 -23
68 -44 130 -46 138 -9 26 67 -62 111 -130 111 -170 191 -458 213 -760 9 -129
25 -140 59 -40 70 210 50 569 -52 950 -8 30 -13 55 -11 57 8 8 91 -156 126
-249 71 -188 126 -467 145 -730 7 -97 26 -118 45 -50 32 117 44 224 44 417 0
215 -14 338 -59 515 -13 52 -22 96 -20 98 8 8 88 -141 126 -234 70 -170 144
-476 164 -674 9 -96 15 -120 30 -120 20 0 45 126 52 260 11 234 -28 449 -142
775 -4 11 8 -2 26 -30 101 -156 195 -458 255 -827 18 -106 32 -169 41 -172 39
-15 68 294 44 466 -15 105 -62 297 -101 413 -36 109 -18 91 50 -50 82 -172
156 -429 195 -685 9 -58 20 -121 24 -140 l7 -35 23 60 c33 88 42 147 42 277
-1 143 -27 288 -81 442 -42 119 -37 120 37 7 103 -156 187 -407 227 -680 8
-57 17 -106 20 -108 7 -7 35 63 53 132 24 91 13 337 -20 470 -14 55 -24 102
-21 104 2 2 26 -43 53 -100 59 -124 126 -316 171 -491 18 -70 36 -125 41 -123
19 12 31 125 26 240 -5 112 -42 298 -77 389 -20 53 -3 37 33 -31 61 -118 157
-427 197 -638 16 -87 19 -94 31 -73 19 34 21 142 5 237 -9 52 -14 96 -11 99
13 13 145 -326 145 -374 0 -8 9 -14 21 -14 21 0 21 3 17 113 -5 125 -35 232
-104 369 l-36 73 37 -35 c76 -73 197 -292 271 -492 21 -56 34 -78 47 -78 20 0
20 4 6 106 -14 99 -50 213 -105 334 l-44 95 36 -40 c98 -109 271 -424 359
-652 22 -57 44 -103 48 -103 51 0 -37 308 -158 555 -131 267 -283 475 -519
711 -315 315 -684 553 -1094 705 -480 178 -1016 218 -1492 113 -206 -46 -497
-151 -701 -254 -32 -17 -61 -30 -63 -30 -3 0 -14 21 -25 46 -65 145 -229 303
-458 440 -45 27 -80 50 -78 52 8 8 113 -22 195 -55 144 -59 338 -173 493 -291
37 -29 70 -52 72 -52 2 0 -5 26 -16 57 -41 119 -123 238 -254 367 -83 81 -272
229 -360 281 -61 36 -45 42 50 20 186 -43 429 -188 668 -398 70 -62 97 -74 97
-46 0 22 -71 163 -117 231 -92 139 -307 334 -479 435 -35 20 -62 38 -60 40 2
2 37 -3 79 -12 211 -43 427 -182 674 -432 72 -73 137 -133 143 -133 16 0 4 51
-30 125 -83 186 -293 419 -572 636 -103 79 -93 81 59 9 192 -91 384 -240 604
-468 90 -93 139 -138 148 -133 17 11 -90 219 -177 341 -79 112 -314 352 -425
435 -43 32 -76 60 -73 62 6 7 165 -61 236 -102 177 -100 352 -237 523 -408
137 -138 160 -142 99 -21 -110 218 -306 421 -582 606 -114 76 -104 80 35 14
165 -78 392 -245 630 -462 145 -132 169 -130 97 9 -94 180 -285 369 -557 550
-102 68 -85 67 60 -3 184 -89 416 -256 608 -440 54 -51 100 -90 104 -86 9 9
-15 83 -52 156 -75 148 -203 281 -400 412 -108 72 -116 80 -80 73 48 -8 191
-66 255 -103 142 -81 295 -197 423 -321 67 -65 77 -71 77 -50 -1 32 -40 126
-82 195 -58 97 -213 251 -348 346 -40 28 109 -37 191 -83 92 -52 281 -179 384
-259 43 -33 80 -59 82 -57 2 2 -4 23 -12 47 -36 101 -163 239 -349 377 -55 42
-90 72 -76 68 99 -30 326 -177 533 -344 75 -61 137 -107 137 -101 0 43 -76
147 -163 222 -108 93 7 45 196 -81 58 -39 110 -71 116 -71 42 0 -54 128 -152
204 -40 30 -117 79 -172 107 l-100 51 51 -5 c105 -12 286 -86 487 -202 73 -42
102 -54 110 -46 29 29 -202 209 -373 290 -98 47 -90 50 35 17 175 -47 385
-138 597 -259 65 -37 122 -67 128 -67 46 0 -59 95 -222 200 -306 198 -684 326
-1108 374 -147 17 -513 20 -660 5z m-1520 -1986 c161 -46 386 -161 568 -291
l63 -44 -123 -67 -123 -67 -30 45 c-74 114 -267 276 -472 398 -51 30 -93 56
-93 58 0 11 132 -10 210 -32z m-2246 -225 c-131 -111 -248 -247 -299 -348 -10
-19 -19 -37 -21 -39 -2 -2 -37 9 -79 24 l-77 28 87 81 c117 108 263 218 350
261 38 19 74 35 79 35 5 0 -13 -19 -40 -42z m2115 27 c103 -36 278 -135 429
-242 l64 -45 -63 -38 -63 -37 -41 56 c-72 97 -171 180 -371 308 -26 17 -4 16
45 -2z m-1868 -170 c-110 -92 -207 -196 -270 -290 l-47 -71 -88 41 -88 41 63
55 c201 175 384 282 512 298 4 1 -33 -33 -82 -74z m1784 -24 c44 -11 118 -36
165 -55 99 -42 243 -119 247 -132 1 -5 -41 -38 -93 -74 -52 -36 -101 -69 -108
-74 -9 -6 -39 18 -102 81 -81 82 -190 163 -310 230 l-39 21 35 10 c55 16 118
14 205 -7z m-1775 -178 c-56 -53 -120 -125 -143 -160 -23 -35 -45 -63 -49 -63
-14 0 -78 34 -76 40 5 11 141 131 193 171 45 34 164 109 172 109 2 0 -42 -44
-97 -97z m343 -49 c3 -3 -27 -33 -68 -65 -72 -58 -148 -140 -195 -209 -13 -19
-25 -37 -26 -39 -2 -2 -43 20 -93 49 l-90 52 27 22 c90 75 238 157 325 181 55
15 110 19 120 9z m1312 -56 c66 -22 245 -107 245 -117 -1 -3 -23 -23 -50 -44
l-49 -37 -68 60 c-57 51 -139 110 -230 166 -26 17 75 -2 152 -28z m-1312 -225
c-39 -38 -84 -85 -100 -106 l-31 -39 -41 28 -42 27 53 38 c53 39 202 119 220
119 6 0 -21 -30 -59 -67z m-2173 -195 c-56 -250 -50 -515 14 -699 l25 -71 -37
-15 c-20 -8 -66 -28 -101 -44 -35 -16 -67 -27 -70 -23 -3 3 -7 78 -9 167 -6
261 33 488 109 640 28 56 75 127 83 127 2 0 -4 -37 -14 -82z m296 -30 c-29
-142 -39 -266 -33 -437 4 -91 9 -180 13 -197 l6 -30 -79 -23 c-43 -12 -87 -25
-97 -28 -18 -6 -19 -1 -13 103 11 187 53 384 114 528 28 67 91 171 99 163 3
-3 -2 -38 -10 -79z m588 -98 c-32 -128 -54 -280 -54 -379 0 -70 -2 -81 -17
-82 -10 0 -52 -6 -94 -13 l-77 -12 30 109 c49 183 115 334 188 426 23 29 43
51 45 49 2 -2 -7 -46 -21 -98z m-304 -21 c-26 -85 -50 -268 -50 -374 l0 -112
-67 -15 c-38 -8 -69 -14 -71 -13 -6 5 43 208 73 301 40 123 108 264 121 251 2
-2 -1 -19 -6 -38z m748 -100 c-15 -62 -31 -156 -35 -210 l-6 -99 -99 0 c-54 0
-98 4 -98 9 0 18 53 149 87 213 40 76 102 152 148 179 16 11 30 19 30 19 1 0
-12 -50 -27 -111z m-299 6 c-10 -44 -24 -135 -30 -201 l-12 -122 -35 -6 c-20
-3 -38 -4 -40 -1 -6 6 26 145 50 219 20 62 79 198 84 194 1 -2 -6 -39 -17 -83z
m3146 -10 c44 -62 102 -170 134 -253 l19 -47 -74 3 -74 4 0 29 c0 59 -44 237
-86 344 l-7 20 22 -20 c13 -11 43 -47 66 -80z m-2641 -90 c-7 -33 -17 -95 -20
-137 l-7 -78 -49 0 c-57 0 -57 -5 -8 113 27 63 89 171 96 165 1 -2 -4 -30 -12
-63z m2470 -61 c43 -43 103 -130 95 -139 -2 -2 -26 -5 -53 -6 l-48 -3 -33 89
c-18 50 -36 98 -40 109 -7 16 -5 17 13 7 11 -6 41 -31 66 -57z m1176 -1186
c-7 -38 -15 -68 -19 -68 -4 0 -22 15 -40 34 l-33 34 35 93 c20 52 39 108 43
124 4 17 10 35 13 40 11 19 12 -190 1 -257z m260 -36 c-9 -69 -54 -249 -64
-260 -2 -2 -20 17 -40 41 l-35 43 39 91 c22 51 52 133 67 184 l28 93 8 -54 c5
-33 3 -89 -3 -138z m240 -57 c-7 -38 -25 -108 -40 -155 -28 -90 -102 -270
-110 -270 -3 0 -18 20 -33 44 l-28 44 55 99 c51 91 154 318 157 346 1 6 4 1 6
-13 3 -14 0 -56 -7 -95z m195 -162 c-9 -49 -34 -142 -56 -207 -44 -131 -139
-341 -149 -329 -3 4 -21 40 -39 79 l-34 72 72 107 c76 113 151 256 192 363 22
57 24 60 27 33 2 -17 -4 -70 -13 -118z m170 -65 c-27 -158 -126 -424 -247
-662 l-34 -68 -28 81 -28 82 37 40 c54 60 131 181 181 286 44 91 123 310 125
348 1 16 2 17 6 3 2 -9 -3 -59 -12 -110z"/>
<path d="M4986 9500 c-3 -14 -33 -173 -65 -353 l-59 -329 24 -71 c136 -400
205 -983 183 -1550 -17 -448 -67 -781 -199 -1327 -94 -387 -128 -607 -149
-945 -19 -304 -23 -541 -12 -839 19 -526 50 -882 157 -1791 l67 -571 -72 -102
c-45 -62 -78 -99 -85 -95 -110 66 -116 72 -116 116 0 105 -69 632 -81 620 -8
-8 -69 -470 -69 -526 0 -57 -9 -59 -90 -26 -41 16 -115 42 -165 56 -86 25 -94
29 -171 102 -45 43 -101 93 -125 112 l-44 34 51 -65 c82 -104 142 -202 214
-354 69 -144 148 -352 137 -362 -14 -14 -147 27 -216 67 -40 23 -128 66 -194
96 -67 29 -134 60 -148 68 -38 21 -251 96 -256 91 -3 -3 24 -19 58 -37 141
-70 359 -207 359 -224 0 -2 -26 -2 -57 0 -32 3 -49 2 -38 -1 142 -37 151 -41
225 -121 40 -43 95 -109 122 -148 54 -77 112 -184 104 -192 -3 -3 -34 -9 -70
-12 -36 -4 -68 -9 -71 -13 -3 -3 33 -14 81 -24 47 -10 90 -22 96 -25 9 -6 51
-140 45 -145 -1 -1 -40 6 -87 16 -47 10 -87 16 -88 14 -9 -7 132 -43 227 -59
137 -23 390 -16 534 15 197 42 462 143 622 237 59 35 197 169 845 817 426 426
772 777 770 780 -3 2 -122 -77 -265 -176 -143 -99 -303 -209 -355 -245 l-95
-65 65 63 c79 76 196 189 480 459 285 271 403 385 530 506 58 56 119 113 135
127 17 14 27 28 24 31 -3 3 -202 -140 -442 -319 -240 -178 -437 -323 -437
-321 0 2 261 291 580 642 319 351 578 639 576 641 -5 6 -229 -75 -421 -152
-620 -248 -1290 -603 -1877 -996 l-206 -138 -10 37 -9 37 -7 -40 c-12 -65 -15
-69 -52 -94 l-37 -23 9 -127 c5 -69 9 -180 9 -246 0 -158 -16 -428 -25 -418
-8 9 -41 438 -40 528 0 33 7 85 15 115 19 72 18 84 -5 36 l-18 -40 -6 35 c-12
73 -69 1098 -91 1614 -30 727 -36 970 -42 1725 -11 1420 42 2517 165 3410 l17
125 -75 37 c-125 62 -210 152 -259 274 -17 45 -20 47 -25 24z m-593 -7848 l97
-64 0 -58 c0 -31 -3 -92 -7 -134 l-6 -77 -51 98 c-61 115 -118 202 -192 289
-30 35 -54 66 -54 69 0 10 104 -50 213 -123z"/>
</g>
</svg>
